Genre:Comedy
Language:English
IMDb:http://www.imdb.com/title/tt1730704/
Source:UNRATED.NTSC.DVDR.Thx


Format : MPEG-4
Format profile : Base Media
Codec ID : isom
File size : 706 MiB
Duration : 1h 28mn
Overall bit rate : 1 118 Kbps


Video
Codec ID : avc1
Codec ID/Info : Advanced Video Coding
Duration : 1h 28mn
Bit rate mode : Variable
Bit rate : 951 Kbps
Width : 720 pixels
Height : 384 pixels
Display aspect ratio : 1.875
Frame rate mode : Constant
Frame rate : 23.976 fps
Original frame rate : 23.000 fps
Color space : YUV
Chroma subsampling : 4:2:0
Bit depth : 8 bits
Scan type : Progressive
Bits/(Pixel*Frame) : 0.143
Stream size : 600 MiB (85%)


Audio
ID : 1
Format : AAC
Format/Info : Advanced Audio Codec
Format version : Version 4
Format profile : LC
Codec ID : 40
Duration : 1h 28mn
Bit rate mode : Constant
Bit rate : 160 Kbps
Channel(s) : 2 channels
Channel positions : Front: L R
Sampling rate : 48.0 KHz
Stream size : 101 MiB (14%)
Language : English


Plot:
A group of nerdy college guys who can't seem to connect with girls their own age discover the excitement of hooking up with sexy older women.





================================== 
http://thepiratebay.org/user/hiest
==================================





Screen Shots:
 
http://img63.imageshack.us/img63/6117/vlcsnap2010122822h27m49.png
 
http://img340.imageshack.us/img340/991/vlcsnap2010122822h27m54.png
 
http://img189.imageshack.us/img189/7991/vlcsnap2010122822h28m54.png
 
http://img209.imageshack.us/img209/3601/vlcsnap2010122822h29m11.png
 
http://img5.imageshack.us/img5/2387/vlcsnap2010122822h28m09.png